<?xml version="1.0" encoding="UTF-8" standalone="no"?>
<!-- Created with Inkscape (http://www.inkscape.org/) -->

<svg
   xmlns:dc="http://purl.org/dc/elements/1.1/"
   xmlns:cc="http://creativecommons.org/ns#"
   xmlns:rdf="http://www.w3.org/1999/02/22-rdf-syntax-ns#"
   xmlns:svg="http://www.w3.org/2000/svg"
   xmlns="http://www.w3.org/2000/svg"
   xmlns:sodipodi="http://sodipodi.sourceforge.net/DTD/sodipodi-0.dtd"
   xmlns:inkscape="http://www.inkscape.org/namespaces/inkscape"
   width="61"
   height="24"
   id="svg2"
   version="1.1"
   inkscape:version="0.48.3.1 r9886"
   sodipodi:docname="orgwolf-logo.svg"
   inkscape:export-filename="/home/mark/src/orgwolf/artwork-source/orgwolf-logo-debug.png"
   inkscape:export-xdpi="90"
   inkscape:export-ydpi="90">
  <defs
     id="defs4">
    <filter
       id="filter5770"
       inkscape:menu-tooltip="Draws a black outline around"
       inkscape:menu="ABCs"
       inkscape:label="Black outline"
       color-interpolation-filters="sRGB">
      <feGaussianBlur
         id="feGaussianBlur5772"
         stdDeviation="2"
         in="SourceAlpha"
         result="result0" />
      <feComposite
         id="feComposite5774"
         in2="result0"
         result="result3"
         operator="arithmetic"
         in="SourceGraphic"
         k2="1"
         k3="10"
         k1="0"
         k4="0" />
      <feComposite
         id="feComposite5776"
         in2="result3"
         operator="in"
         in="result3"
         result="fbSourceGraphic" />
      <feColorMatrix
         result="fbSourceGraphicAlpha"
         in="fbSourceGraphic"
         values="0 0 0 -1 0 0 0 0 -1 0 0 0 0 -1 0 0 0 0 1 0"
         id="feColorMatrix5778" />
      <feGaussianBlur
         id="feGaussianBlur5780"
         stdDeviation="2"
         in="fbSourceGraphicAlpha"
         result="result0" />
      <feComposite
         id="feComposite5782"
         in2="result0"
         result="result3"
         operator="arithmetic"
         in="fbSourceGraphic"
         k2="1"
         k3="10"
         k1="0"
         k4="0" />
      <feComposite
         id="feComposite5784"
         in2="result3"
         operator="in"
         in="result3"
         result="result4" />
    </filter>
    <filter
       id="filter5806"
       x="0"
       width="1"
       y="0"
       height="1"
       inkscape:menu="Color"
       inkscape:menu-tooltip="Invert colors"
       inkscape:label="Invert"
       color-interpolation-filters="sRGB">
      <feGaussianBlur
         id="feGaussianBlur5808"
         result="result8"
         stdDeviation="7" />
      <feComposite
         id="feComposite5810"
         in2="SourceGraphic"
         in="result8"
         operator="xor"
         result="result6" />
      <feDisplacementMap
         id="feDisplacementMap5812"
         in2="result6"
         result="result4"
         scale="75"
         yChannelSelector="A"
         xChannelSelector="A"
         in="result6" />
      <feComposite
         id="feComposite5814"
         in2="SourceGraphic"
         k1="1"
         in="result4"
         operator="arithmetic"
         result="fbSourceGraphic"
         k2="0"
         k3="0"
         k4="0" />
      <feColorMatrix
         result="fbSourceGraphicAlpha"
         in="fbSourceGraphic"
         values="0 0 0 -1 0 0 0 0 -1 0 0 0 0 -1 0 0 0 0 1 0"
         id="feColorMatrix5860" />
      <feColorMatrix
         id="feColorMatrix5862"
         type="saturate"
         values="1"
         result="fbSourceGraphic"
         in="fbSourceGraphic" />
      <feColorMatrix
         id="feColorMatrix5864"
         in="fbSourceGraphic"
         values="-1 0 0 0 1 0 -1 0 0 1 0 0 -1 0 1 0 0 0 1 0 " />
    </filter>
    <filter
       id="filter5806-3"
       x="-0.25"
       width="1.5"
       y="-0.25"
       height="1.5"
       inkscape:menu="Non realistic 3D shaders"
       inkscape:menu-tooltip="Brushed aluminium shader"
       inkscape:label="Aluminium"
       color-interpolation-filters="sRGB">
      <feGaussianBlur
         id="feGaussianBlur5808-8"
         result="result8"
         stdDeviation="7" />
      <feComposite
         id="feComposite5810-5"
         in2="SourceGraphic"
         in="result8"
         operator="xor"
         result="result6" />
      <feDisplacementMap
         id="feDisplacementMap5812-0"
         in2="result6"
         result="result4"
         scale="75"
         yChannelSelector="A"
         xChannelSelector="A"
         in="result6" />
      <feComposite
         k4="0"
         k3="0"
         k2="0"
         id="feComposite5814-4"
         in2="SourceGraphic"
         k1="1"
         in="result4"
         operator="arithmetic"
         result="result2" />
    </filter>
    <filter
       id="filter5994"
       x="-0.25"
       width="1.5"
       y="-0.25"
       height="1.5"
       inkscape:menu="Non realistic 3D shaders"
       inkscape:menu-tooltip="Brushed aluminium shader"
       inkscape:label="Aluminium"
       color-interpolation-filters="sRGB">
      <feGaussianBlur
         id="feGaussianBlur5996"
         result="result8"
         stdDeviation="7" />
      <feComposite
         id="feComposite5998"
         in2="SourceGraphic"
         in="result8"
         operator="xor"
         result="result6" />
      <feDisplacementMap
         id="feDisplacementMap6000"
         in2="result6"
         result="result4"
         scale="75"
         yChannelSelector="A"
         xChannelSelector="A"
         in="result6" />
      <feComposite
         id="feComposite6002"
         in2="SourceGraphic"
         k1="1"
         in="result4"
         operator="arithmetic"
         result="result2"
         k2="0"
         k3="0"
         k4="0" />
    </filter>
    <filter
       id="filter5994-2"
       x="-0.25"
       width="1.5"
       y="-0.25"
       height="1.5"
       inkscape:menu="Non realistic 3D shaders"
       inkscape:menu-tooltip="Brushed aluminium shader"
       inkscape:label="Aluminium"
       color-interpolation-filters="sRGB">
      <feGaussianBlur
         id="feGaussianBlur5996-7"
         result="result8"
         stdDeviation="7" />
      <feComposite
         id="feComposite5998-8"
         in2="SourceGraphic"
         in="result8"
         operator="xor"
         result="result6" />
      <feDisplacementMap
         id="feDisplacementMap6000-5"
         in2="result6"
         result="result4"
         scale="75"
         yChannelSelector="A"
         xChannelSelector="A"
         in="result6" />
      <feComposite
         k4="0"
         k3="0"
         k2="0"
         id="feComposite6002-4"
         in2="SourceGraphic"
         k1="1"
         in="result4"
         operator="arithmetic"
         result="result2" />
    </filter>
    <filter
       id="filter6618"
       inkscape:label="Drop Shadow"
       color-interpolation-filters="sRGB">
      <feFlood
         id="feFlood6620"
         flood-opacity="0.75"
         flood-color="rgb(0,0,0)"
         result="flood" />
      <feComposite
         id="feComposite6622"
         in2="SourceGraphic"
         in="flood"
         operator="in"
         result="composite1" />
      <feGaussianBlur
         id="feGaussianBlur6624"
         stdDeviation="2"
         result="blur" />
      <feOffset
         id="feOffset6626"
         dx="5"
         dy="5"
         result="offset" />
      <feComposite
         id="feComposite6628"
         in2="offset"
         in="SourceGraphic"
         operator="over"
         result="composite2" />
    </filter>
    <filter
       id="filter6630"
       inkscape:label="Drop Shadow"
       color-interpolation-filters="sRGB">
      <feFlood
         id="feFlood6632"
         flood-opacity="0.75"
         flood-color="rgb(0,0,0)"
         result="flood" />
      <feComposite
         id="feComposite6634"
         in2="SourceGraphic"
         in="flood"
         operator="in"
         result="composite1" />
      <feGaussianBlur
         id="feGaussianBlur6636"
         stdDeviation="2"
         result="blur" />
      <feOffset
         id="feOffset6638"
         dx="5"
         dy="5"
         result="offset" />
      <feComposite
         id="feComposite6640"
         in2="offset"
         in="SourceGraphic"
         operator="over"
         result="composite2" />
    </filter>
    <filter
       id="filter6618-5"
       inkscape:label="Drop Shadow"
       color-interpolation-filters="sRGB">
      <feFlood
         id="feFlood6620-9"
         flood-opacity="0.75"
         flood-color="rgb(0,0,0)"
         result="flood" />
      <feComposite
         id="feComposite6622-1"
         in2="SourceGraphic"
         in="flood"
         operator="in"
         result="composite1" />
      <feGaussianBlur
         id="feGaussianBlur6624-6"
         stdDeviation="2"
         result="blur" />
      <feOffset
         id="feOffset6626-3"
         dx="5"
         dy="5"
         result="offset" />
      <feComposite
         id="feComposite6628-4"
         in2="offset"
         in="SourceGraphic"
         operator="over"
         result="composite2" />
    </filter>
    <filter
       id="filter6630-0"
       inkscape:label="Drop Shadow"
       color-interpolation-filters="sRGB">
      <feFlood
         id="feFlood6632-5"
         flood-opacity="0.75"
         flood-color="rgb(0,0,0)"
         result="flood" />
      <feComposite
         id="feComposite6634-6"
         in2="SourceGraphic"
         in="flood"
         operator="in"
         result="composite1" />
      <feGaussianBlur
         id="feGaussianBlur6636-5"
         stdDeviation="2"
         result="blur" />
      <feOffset
         id="feOffset6638-9"
         dx="5"
         dy="5"
         result="offset" />
      <feComposite
         id="feComposite6640-4"
         in2="offset"
         in="SourceGraphic"
         operator="over"
         result="composite2" />
    </filter>
    <filter
       id="filter5994-2-2"
       x="-0.25"
       width="1.5"
       y="-0.25"
       height="1.5"
       inkscape:menu="Non realistic 3D shaders"
       inkscape:menu-tooltip="Brushed aluminium shader"
       inkscape:label="Aluminium"
       color-interpolation-filters="sRGB">
      <feGaussianBlur
         id="feGaussianBlur5996-7-4"
         result="result8"
         stdDeviation="7" />
      <feComposite
         id="feComposite5998-8-8"
         in2="SourceGraphic"
         in="result8"
         operator="xor"
         result="result6" />
      <feDisplacementMap
         id="feDisplacementMap6000-5-6"
         in2="result6"
         result="result4"
         scale="75"
         yChannelSelector="A"
         xChannelSelector="A"
         in="result6" />
      <feComposite
         k4="0"
         k3="0"
         k2="0"
         id="feComposite6002-4-4"
         in2="SourceGraphic"
         k1="1"
         in="result4"
         operator="arithmetic"
         result="result2" />
    </filter>
    <filter
       id="filter4140"
       inkscape:label="Drop Shadow"
       color-interpolation-filters="sRGB">
      <feFlood
         id="feFlood4142"
         flood-opacity="0.75"
         flood-color="rgb(0,0,0)"
         result="flood" />
      <feComposite
         id="feComposite4144"
         in2="SourceGraphic"
         in="flood"
         operator="in"
         result="composite1" />
      <feGaussianBlur
         id="feGaussianBlur4146"
         stdDeviation="2"
         result="blur" />
      <feOffset
         id="feOffset4148"
         dx="5"
         dy="5"
         result="offset" />
      <feComposite
         id="feComposite4150"
         in2="offset"
         in="SourceGraphic"
         operator="over"
         result="composite2" />
    </filter>
  </defs>
  <sodipodi:namedview
     id="base"
     pagecolor="#ffffff"
     bordercolor="#666666"
     borderopacity="1.0"
     inkscape:pageopacity="0.0"
     inkscape:pageshadow="2"
     inkscape:zoom="12.332748"
     inkscape:cx="30.174056"
     inkscape:cy="11.423036"
     inkscape:document-units="px"
     inkscape:current-layer="flowRoot6038-0"
     showgrid="false"
     inkscape:snap-nodes="false"
     inkscape:window-width="1366"
     inkscape:window-height="718"
     inkscape:window-x="0"
     inkscape:window-y="25"
     inkscape:window-maximized="1"
     inkscape:snap-bbox="true"
     fit-margin-top="0"
     fit-margin-left="0"
     fit-margin-right="0"
     fit-margin-bottom="0" />
  <metadata
     id="metadata7">
    <rdf:RDF>
      <cc:Work
         rdf:about="">
        <dc:format>image/svg+xml</dc:format>
        <dc:type
           rdf:resource="http://purl.org/dc/dcmitype/StillImage" />
        <dc:title></dc:title>
      </cc:Work>
    </rdf:RDF>
  </metadata>
  <g
     inkscape:label="Wolf"
     inkscape:groupmode="layer"
     id="layer1"
     style="display:none"
     transform="translate(36.664778,-298.81025)">
    <g
       id="g3046"
       transform="matrix(0.083,0,0,0.083,-37.309223,298.43365)">
      <path
         id="path3950-8"
         d="m 142.91887,11.86017 c -72.957896,0 -132.104416,59.14652 -132.104416,132.10443 0,72.95791 59.14652,132.10443 132.104416,132.10443 72.95791,0 132.10443,-59.14652 132.10443,-132.10443 0,-72.95791 -59.14652,-132.10443 -132.10443,-132.10443 z M 142.537,31.04351 c 28.94689,0 67.95448,49.19379 67.52354,108.8553 -0.42954,59.46553 -40.05265,116.24561 -67.52354,116.24561 -62.156866,0 -112.539216,-50.40482 -112.539216,-112.56169 0,-62.15687 50.38235,-112.53922 112.539216,-112.53922 z"
         style="fill:#6600cc;fill-opacity:1;display:inline;filter:url(#filter6630)"
         inkscape:connector-curvature="0" />
      <path
         transform="matrix(0.71881342,0,0,0.71881342,-163.35107,12.5984)"
         style="fill:#eeeeee;fill-opacity:1;display:inline;filter:url(#filter5994-2)"
         d="m 426.0771,-2.0537045 c -101.49769,0 -183.78125,82.2835505 -183.78125,183.7812545 0,101.49769 82.28356,183.78125 183.78125,183.78125 101.49774,0 183.78124,-82.28356 183.78124,-183.78125 0,-101.497704 -82.2835,-183.7812545 -183.78124,-183.7812545 z m -0.53125,26.6875005 c 40.27037,0 94.53702,68.4375 93.9375,151.437504 -0.59756,82.72734 -55.72051,161.71875 -93.9375,161.71875 -86.4715,0 -156.5625,-70.12226 -156.5625,-156.59375 0,-86.471504 70.091,-156.562504 156.5625,-156.562504 z"
         id="path5853"
         inkscape:connector-curvature="0" />
      <path
         inkscape:connector-curvature="0"
         id="path3945"
         d="m 91.920534,158.65588 c 0,0 10.958736,-10.43689 15.655336,-9.91505 4.69661,0.52185 8.87136,-4.17476 13.56796,-10.95874 4.69661,-6.78398 18.78641,-25.04855 18.78641,-25.04855 l 5.74029,-7.82767 c 0,0 5.73534,4.83398 9.97884,11.56823 4.2435,6.73425 1.476,11.07 1.66051,12.08475 0.18449,1.01475 -0.36901,6.18074 -0.36901,6.18074 0,0 1.476,0.738 4.52025,-2.583 3.04425,-3.32099 7.5645,-3.69 7.5645,-3.69 0,0 2.85975,-0.27675 5.166,5.44275 2.30625,5.71951 2.85975,8.76376 -0.5535,13.83751 -3.41325,5.07374 -10.701,12.17699 -12.08474,19.55699 -1.38376,7.38 -3.04426,13.8375 -6.45751,22.509 -3.41325,8.6715 -0.738,23.616 -0.738,23.616 0,0 -0.27675,5.99624 3.41325,13.09949 3.69,7.10325 3.59775,18.72675 0.83025,23.61599 -2.7675,4.88926 -2.67525,13.92975 -2.67525,13.92975 0,0 0.1845,8.3025 2.583,11.34675 2.3985,3.04425 -0.5535,7.011 -0.5535,7.011 l -116.880716,0.27675 10.5165,-10.05525 c 0,0 5.25825,-4.33575 4.88924,-15.498 -0.36899,-11.16225 3.321,-13.19174 3.321,-13.19174 l 5.62725,-14.76 c 0,0 1.66051,-1.56825 2.30625,-11.439 0.64576,-9.87074 3.78225,-14.48325 3.78225,-14.48325 l -15.03675,-9.31724 c 0,0 -7.9335,-5.7195 0.36901,-10.701 8.30249,-4.9815 10.70099,-7.38 15.03674,-7.749 4.33575,-0.369 11.808,-5.81175 14.9445,-10.8855 3.1365,-5.07375 5.08964,-5.97271 5.08964,-5.97271 z"
         style="fill:#323232;fill-opacity:1;stroke:#000000;stroke-width:0.71881342px;stroke-linecap:butt;stroke-linejoin:miter;stroke-opacity:1;filter:url(#filter6630)" />
    </g>
  </g>
  <g
     inkscape:groupmode="layer"
     id="layer7"
     inkscape:label="Sky"
     style="display:none"
     transform="translate(36.664778,-298.81025)">
    <path
       sodipodi:type="arc"
       style="fill:#74009c;fill-opacity:1"
       id="path5802"
       sodipodi:cx="426.07709"
       sodipodi:cy="189.42773"
       sodipodi:rx="141.68347"
       sodipodi:ry="163.75734"
       d="m 567.76056,189.42773 c 0,90.44069 -63.43385,163.75734 -141.68347,163.75734 -78.24962,0 -141.68347,-73.31665 -141.68347,-163.75734 0,-90.440677 63.43385,-163.757335 141.68347,-163.757335 77.80441,0 141.05233,72.51543 141.67888,162.438635"
       sodipodi:start="0"
       sodipodi:end="6.2751324"
       transform="translate(-21.560528,-9.2402261)"
       sodipodi:open="true" />
  </g>
  <g
     inkscape:groupmode="layer"
     id="layer4"
     inkscape:label="Moon"
     style="display:none"
     transform="translate(36.664778,-298.81025)" />
  <g
     inkscape:groupmode="layer"
     id="layer8"
     inkscape:label="Text"
     transform="translate(36.664778,-298.81025)"
     style="display:none">
    <flowRoot
       xml:space="preserve"
       id="flowRoot6038"
       style="font-size:144px;font-style:normal;font-variant:normal;font-weight:normal;font-stretch:normal;line-height:125%;letter-spacing:0px;word-spacing:0px;fill:#6600cc;fill-opacity:1;stroke:none;filter:url(#filter6618);font-family:Sans;-inkscape-font-specification:'decsess.pcf'"
       transform="matrix(0.083,0,0,0.083,-68.438133,283.94703)"
       inkscape:export-xdpi="90"
       inkscape:export-ydpi="90"><flowRegion
         id="flowRegion6040"><rect
           id="rect6042"
           width="605.74817"
           height="251.53947"
           x="646.81586"
           y="277.20987"
           style="font-size:144px;font-style:normal;font-variant:normal;font-weight:normal;font-stretch:normal;fill:#6600cc;font-family:Sans;-inkscape-font-specification:'decsess.pcf'" /></flowRegion><flowPara
         id="flowPara6044"
         style="font-style:normal;font-variant:normal;font-weight:normal;font-stretch:normal;font-family:Sans;-inkscape-font-specification:Terminal">rgWolf</flowPara></flowRoot>  </g>
  <g
     inkscape:groupmode="layer"
     id="layer5"
     inkscape:label="Debug"
     style="display:inline"
     transform="translate(0,-335.1673)">
    <text
       xml:space="preserve"
       style="font-size:1.49399996px;font-style:normal;font-weight:normal;line-height:125%;letter-spacing:0px;word-spacing:0px;fill:#000000;fill-opacity:1;stroke:none;font-family:Sans"
       x="30.824623"
       y="342.66611"
       id="text3302"
       sodipodi:linespacing="125%"><tspan
         sodipodi:role="line"
         id="tspan3304"
         x="30.824623"
         y="342.66611"
         style="font-size:5.97599983px;font-weight:bold;fill:#650101;fill-opacity:1;-inkscape-font-specification:Sans Bold">DEBUG</tspan></text>
    <g
       transform="matrix(0.083,0,0,0.083,-31.816453,320.32961)"
       style="font-size:144px;font-style:normal;font-variant:normal;font-weight:normal;font-stretch:normal;line-height:125%;letter-spacing:0px;word-spacing:0px;fill:#015a01;fill-opacity:1;stroke:none;filter:url(#filter6618-5);font-family:Sans;-inkscape-font-specification:'decsess.pcf'"
       id="flowRoot6038-0">
      <path
         d="m 706.01562,354.09438 c -1.45318,-0.84368 -3.04693,-1.45306 -4.78125,-1.82813 -1.68755,-0.4218 -3.56255,-0.63274 -5.625,-0.63281 -7.31254,7e-5 -12.93753,2.39069 -16.875,7.17188 -3.89065,4.73443 -5.83596,11.55473 -5.83593,20.46093 l 0,41.48438 -13.00782,0 0,-78.75 13.00782,0 0,12.23437 c 2.71872,-4.78117 6.25778,-8.32023 10.61718,-10.61718 4.35934,-2.34367 9.65621,-3.51555 15.89063,-3.51563 0.89057,8e-5 1.87495,0.0704 2.95312,0.21094 1.07807,0.0938 2.27338,0.25789 3.58594,0.49219 l 0.0703,13.28906"
         style="fill:#015a01;font-family:Sans;-inkscape-font-specification:Terminal"
         id="path3259" />
      <path
         d="m 769.01562,380.46157 c -6e-5,-9.37495 -1.94537,-16.64057 -5.83593,-21.79688 -3.84381,-5.15618 -9.25787,-7.7343 -16.24219,-7.73437 -6.93754,7e-5 -12.35159,2.57819 -16.24219,7.73437 -3.84377,5.15631 -5.76564,12.42193 -5.76562,21.79688 -2e-5,9.32815 1.92185,16.57033 5.76562,21.72656 3.8906,5.15626 9.30465,7.73439 16.24219,7.73437 6.98432,2e-5 12.39838,-2.57811 16.24219,-7.73437 3.89056,-5.15623 5.83587,-12.39841 5.83593,-21.72656 m 12.9375,30.51562 c -7e-5,13.40625 -2.97663,23.36718 -8.92968,29.88281 -5.95319,6.56248 -15.07037,9.84372 -27.35157,9.84375 -4.54691,-3e-5 -8.83597,-0.35159 -12.86718,-1.05468 -4.03128,-0.65628 -7.94534,-1.68753 -11.74219,-3.09375 l 0,-12.58594 c 3.79685,2.06248 7.54685,3.58592 11.25,4.57031 3.70309,0.98436 7.47653,1.47654 11.32031,1.47656 8.48433,-2e-5 14.83589,-2.22658 19.05469,-6.67968 4.21869,-4.40626 6.32806,-11.08594 6.32812,-20.03907 l 0,-6.39843 c -2.67193,4.64063 -6.0938,8.10938 -10.26562,10.40625 -4.17193,2.29687 -9.16411,3.44531 -14.97656,3.44531 -9.65628,0 -17.43753,-3.67968 -23.34375,-11.03906 -5.90626,-7.35936 -8.85939,-17.10935 -8.85938,-29.25 -10e-6,-12.18745 2.95312,-21.96088 8.85938,-29.32032 5.90622,-7.35929 13.68747,-11.03898 23.34375,-11.03906 5.81245,8e-5 10.80463,1.14852 14.97656,3.44531 4.17182,2.29695 7.59369,5.7657 10.26562,10.40625 l 0,-11.95312 12.9375,0 0,68.97656"
         style="fill:#015a01;font-family:Sans;-inkscape-font-specification:Terminal"
         id="path3261" />
      <path
         d="m 799.8125,315.77407 14.34375,0 22.07812,88.73437 22.00782,-88.73437 15.96093,0 22.07813,88.73437 22.00781,-88.73437 14.41406,0 -26.36718,104.97656 -17.85938,0 -22.14844,-91.125 -22.35937,91.125 -17.85938,0 -26.29687,-104.97656"
         style="fill:#015a01;font-family:Sans;-inkscape-font-specification:Terminal"
         id="path3263" />
      <path
         d="m 972.99219,351.07094 c -6.93754,7e-5 -12.42191,2.71882 -16.45313,8.15625 -4.03127,5.39068 -6.04689,12.79693 -6.04687,22.21875 -2e-5,9.42191 1.99216,16.85159 5.97656,22.28906 4.03122,5.39064 9.53903,8.08595 16.52344,8.08594 6.89057,10e-6 12.3515,-2.71874 16.38281,-8.15625 4.03119,-5.43748 6.04681,-12.84372 6.04687,-22.21875 -6e-5,-9.32807 -2.01568,-16.71088 -6.04687,-22.14844 -4.03131,-5.4843 -9.49224,-8.22649 -16.38281,-8.22656 m 0,-10.96875 c 11.24994,8e-5 20.08587,3.65633 26.50781,10.96875 6.4218,7.31256 9.6327,17.43755 9.6328,30.375 -10e-5,12.89065 -3.211,23.01564 -9.6328,30.375 -6.42194,7.3125 -15.25787,10.96875 -26.50781,10.96875 -11.29691,0 -20.15628,-3.65625 -26.57813,-10.96875 -6.37501,-7.35936 -9.56251,-17.48435 -9.5625,-30.375 -10e-6,-12.93745 3.18749,-23.06244 9.5625,-30.375 6.42185,-7.31242 15.28122,-10.96867 26.57813,-10.96875"
         style="fill:#015a01;font-family:Sans;-inkscape-font-specification:Terminal"
         id="path3265" />
      <path
         d="m 1030.5078,311.34438 12.9375,0 0,109.40625 -12.9375,0 0,-109.40625"
         style="fill:#015a01;font-family:Sans;-inkscape-font-specification:Terminal"
         id="path3267" />
      <path
         d="m 1110.3125,311.34438 0,10.75781 -12.375,0 c -4.6407,10e-5 -7.875,0.9376 -9.7031,2.8125 -1.7813,1.8751 -2.6719,5.25009 -2.6719,10.125 l 0,6.96094 21.3047,0 0,10.05469 -21.3047,0 0,68.69531 -13.0078,0 0,-68.69531 -12.375,0 0,-10.05469 12.375,0 0,-5.48438 c 0,-8.76553 2.039,-15.14052 6.1172,-19.125 4.0781,-4.03114 10.5468,-6.04676 19.4062,-6.04687 l 12.2344,0"
         style="fill:#015a01;font-family:Sans;-inkscape-font-specification:Terminal"
         id="path3269" />
    </g>
    <g
       id="g4210"
       transform="matrix(0.083,0,0,0.083,-3.602403,331.9435)">
      <g
         transform="translate(2.0533836,-1.0266918)"
         id="g4206">
        <path
           inkscape:connector-curvature="0"
           style="fill:#015a01;fill-opacity:1;display:inline;filter:url(#filter6630-0)"
           d="m 176.59099,47.103113 c -72.95789,0 -132.104412,59.146517 -132.104412,132.104427 0,72.95791 59.146522,132.10443 132.104412,132.10443 72.95791,0 132.10443,-59.14652 132.10443,-132.10443 0,-72.95791 -59.14652,-132.104427 -132.10443,-132.104427 z m -0.38187,19.18334 c 28.94689,0 67.95448,49.193787 67.52354,108.855297 -0.42954,59.46553 -40.05265,116.24561 -67.52354,116.24561 -62.15686,0 -112.539212,-50.40482 -112.539212,-112.56169 0,-62.15687 50.382352,-112.539217 112.539212,-112.539217 z"
           id="path3950-8-4" />
        <path
           inkscape:connector-curvature="0"
           id="path5853-0"
           d="m 426.0771,-2.0537045 c -101.49769,0 -183.78125,82.2835505 -183.78125,183.7812545 0,101.49769 82.28356,183.78125 183.78125,183.78125 101.49774,0 183.78124,-82.28356 183.78124,-183.78125 0,-101.497704 -82.2835,-183.7812545 -183.78124,-183.7812545 z m -0.53125,26.6875005 c 40.27037,0 94.53702,68.4375 93.9375,151.437504 -0.59756,82.72734 -55.72051,161.71875 -93.9375,161.71875 -86.4715,0 -156.5625,-70.12226 -156.5625,-156.59375 0,-86.471504 70.091,-156.562504 156.5625,-156.562504 z"
           style="fill:#eeeeee;fill-opacity:1;display:inline;filter:url(#filter5994-2-2)"
           transform="matrix(0.71881342,0,0,0.71881342,-129.67895,47.841343)" />
      </g>
      <path
         inkscape:connector-curvature="0"
         id="path3945-6"
         d="m 125.59266,193.89882 c 0,0 10.95873,-10.43689 15.65533,-9.91505 4.69661,0.52185 8.87136,-4.17476 13.56796,-10.95874 4.69661,-6.78398 18.78641,-25.04855 18.78641,-25.04855 l 5.74029,-7.82767 c 0,0 5.73534,4.83398 9.97884,11.56823 4.2435,6.73425 1.476,11.07 1.66051,12.08475 0.18449,1.01475 -0.36901,6.18074 -0.36901,6.18074 0,0 1.476,0.738 4.52025,-2.583 3.04425,-3.32099 7.5645,-3.69 7.5645,-3.69 0,0 2.85975,-0.27675 5.166,5.44275 2.30625,5.71951 2.85975,8.76376 -0.5535,13.83751 -3.41325,5.07374 -10.701,12.17699 -12.08474,19.55699 -1.38376,7.38 -3.04426,13.8375 -6.45751,22.509 -3.41325,8.6715 -0.738,23.616 -0.738,23.616 0,0 -0.27675,5.99624 3.41325,13.09949 3.69,7.10325 3.59775,18.72675 0.83025,23.61599 -2.7675,4.88926 -2.67525,13.92975 -2.67525,13.92975 0,0 0.1845,8.3025 2.583,11.34675 2.3985,3.04425 -0.5535,7.011 -0.5535,7.011 l -116.880712,0.27675 10.5165,-10.05525 c 0,0 5.25825,-4.33575 4.88924,-15.498 -0.36899,-11.16225 3.321,-13.19174 3.321,-13.19174 l 5.62725,-14.76 c 0,0 1.660512,-1.56825 2.306252,-11.439 0.64576,-9.87074 3.78225,-14.48325 3.78225,-14.48325 l -15.036752,-9.31724 c 0,0 -7.9335,-5.7195 0.36901,-10.701 8.30249,-4.9815 10.700992,-7.38 15.036742,-7.749 4.33575,-0.369 11.808,-5.81175 14.9445,-10.8855 3.1365,-5.07375 5.08964,-5.97271 5.08964,-5.97271 z"
         style="fill:#323232;fill-opacity:1;stroke:#000000;stroke-width:0.71881342px;stroke-linecap:butt;stroke-linejoin:miter;stroke-opacity:1;filter:url(#filter6630-0)" />
    </g>
  </g>
</svg>
